<?xml version="1.0" encoding="UTF-8"?>
<!DOCTYPE svg PUBLIC "-//W3C//DTD SVG 1.1//EN" "http://www.w3.org/Graphics/SVG/1.1/DTD/svg11.dtd">
<!-- Creator: CorelDRAW X8 -->
<svg xmlns="http://www.w3.org/2000/svg" xml:space="preserve" width="2508px" height="362px" version="1.1" style="shape-rendering:geometricPrecision; text-rendering:geometricPrecision; image-rendering:optimizeQuality; fill-rule:evenodd; clip-rule:evenodd"
viewBox="0 0 2508 362"
 xmlns:xlink="http://www.w3.org/1999/xlink">
 <defs>
  <style type="text/css">
   <![CDATA[
    .fil0 {fill:#C62829}
   ]]>
  </style>
 </defs>
 <g id="Layer_x0020_1">
  <metadata id="CorelCorpID_0Corel-Layer"/>
  <g id="_577863904">
   <g>
    <path class="fil0" d="M617 149l0 114c9,0 17,-2 24,-5 7,-3 14,-7 19,-12 5,-5 9,-11 12,-18 2,-7 4,-14 4,-22 0,-11 -2,-20 -7,-29 -5,-8 -12,-15 -20,-21 -9,-5 -20,-7 -32,-7zm-20 114l0 -114c-12,0 -23,2 -32,7 -9,5 -15,12 -20,21 -5,9 -7,18 -7,29 0,8 1,15 4,22 3,7 7,13 12,18 5,5 12,9 19,12 7,3 15,5 24,5zm0 8c-13,0 -24,-2 -34,-5 -10,-3 -19,-8 -26,-14 -7,-6 -12,-13 -16,-21 -3,-8 -5,-16 -5,-25 0,-13 3,-24 9,-34 7,-10 16,-17 28,-23 13,-5 27,-8 44,-8l0 -12c2,1 5,1 10,1 4,0 8,0 10,-1l0 12c17,0 31,3 43,8 13,6 22,13 28,23 7,10 10,21 10,34 0,12 -3,23 -10,33 -6,10 -15,18 -28,23 -12,6 -26,9 -43,9l0 13c-2,0 -6,0 -10,0 -5,0 -8,0 -10,0l0 -13z"/>
    <path class="fil0" d="M807 176l10 0 0 108c-1,0 -3,0 -5,0 -2,0 -4,0 -5,0 -1,0 -2,0 -4,0 -2,0 -4,0 -5,0l0 -78c-8,9 -16,18 -23,26 -7,9 -14,18 -21,27 -8,9 -14,17 -20,25l-9 0 0 -108c2,0 5,1 9,1 4,0 7,-1 9,-1l0 79c5,-5 10,-11 15,-17 6,-6 11,-12 17,-19 5,-7 11,-15 17,-22 5,-7 11,-14 15,-21z"/>
    <path class="fil0" d="M925 222l0 -46c0,0 2,0 4,0 2,1 3,1 5,1 3,0 6,-1 9,-1l0 108c-1,0 -3,0 -5,0 -2,0 -3,0 -4,0 -3,0 -6,0 -9,0l0 -52c-3,0 -7,0 -13,-1 -6,0 -11,0 -15,0 -4,0 -9,0 -15,0 -5,1 -10,1 -12,1l0 52c-1,0 -3,0 -5,0 -2,0 -3,0 -4,0 -1,0 -3,0 -5,0 -2,0 -4,0 -5,0l0 -108c3,0 6,1 10,1 3,0 6,-1 9,-1l0 46c2,0 7,0 12,0 6,1 11,1 15,1 4,0 9,0 15,-1 6,0 10,0 13,0z"/>
    <path class="fil0" d="M1054 265c0,5 0,8 1,9 1,2 2,3 5,3 2,0 4,-1 7,-1l0 5c-3,1 -6,2 -7,2 -3,1 -5,1 -7,1 -10,-1 -15,-5 -17,-14l-2 2c-9,9 -20,14 -33,14 -9,0 -16,-2 -22,-8 -6,-5 -9,-11 -9,-20 0,-7 2,-14 6,-18 4,-4 9,-8 14,-9 6,-2 13,-4 23,-5 6,-1 11,-2 14,-3 4,-1 6,-2 7,-4 2,-2 3,-5 3,-8 0,-9 -3,-15 -7,-20 -5,-5 -11,-7 -20,-7 -7,0 -13,2 -18,5 -5,4 -8,7 -9,11l-2 0 0 -13c12,-8 24,-12 36,-12 25,0 37,12 37,38l0 52zm-18 -37l-8 2c-3,0 -7,1 -12,2 -6,1 -10,3 -14,4 -4,2 -7,4 -9,7 -3,3 -4,7 -4,12 0,7 2,13 6,16 4,4 9,5 16,5 3,0 7,0 10,-2 4,-2 6,-4 9,-6 0,-1 1,-1 2,-2 1,-1 2,-2 3,-3 0,-1 1,-1 1,-2l0 -33z"/>
    <path class="fil0" d="M1164 222l0 -46c1,0 2,0 4,0 2,1 4,1 5,1 3,0 6,-1 9,-1l0 108c-1,0 -2,0 -4,0 -2,0 -4,0 -5,0 -3,0 -6,0 -9,0l0 -52c-3,0 -7,0 -12,-1 -6,0 -11,0 -15,0 -5,0 -10,0 -15,0 -6,1 -10,1 -13,1l0 52c-1,0 -2,0 -4,0 -2,0 -4,0 -5,0 -1,0 -2,0 -4,0 -2,0 -4,0 -5,0l0 -108c3,0 6,1 9,1 3,0 6,-1 9,-1l0 46c3,0 7,0 13,0 5,1 10,1 15,1 4,0 9,0 15,-1 5,0 9,0 12,0z"/>
    <path class="fil0" d="M1297 199l-2 0c-3,-4 -5,-7 -6,-8 -2,-2 -6,-5 -10,-6 -4,-2 -8,-3 -12,-3 -9,0 -16,2 -22,7 -6,4 -10,10 -13,17 -3,7 -4,15 -4,23 0,9 1,18 5,26 3,7 8,13 14,17 7,4 14,7 22,7 6,0 11,-2 16,-4 5,-3 10,-6 15,-11l2 0 -1 11c-11,7 -22,11 -35,11 -12,0 -23,-2 -32,-7 -8,-5 -15,-12 -19,-20 -5,-9 -7,-18 -7,-29 0,-11 2,-21 7,-30 5,-8 12,-14 21,-19 9,-4 19,-6 30,-6 14,0 26,3 36,9l-5 15z"/>
    <path class="fil0" d="M1389 179l-19 19c4,5 9,11 14,16 4,5 9,10 13,15 5,5 10,11 15,17 6,6 10,11 13,15l18 22 0 1c-1,0 -4,0 -6,0 -3,0 -5,0 -6,0 -2,0 -4,0 -7,0 -2,0 -5,0 -6,0 -5,-8 -11,-15 -15,-20l-50 -58c-1,-1 -2,-1 -3,-1 -1,0 -1,0 -1,0l0 79c-1,0 -3,0 -5,0 -2,0 -4,0 -5,0 -1,0 -3,0 -5,0 -2,0 -4,0 -5,0l0 -155c1,0 2,0 3,1 2,0 3,0 4,0 1,0 2,0 3,0 1,0 2,0 3,0 2,0 3,0 4,-1 1,0 3,0 3,0l0 70c0,1 1,1 1,1 2,0 3,-1 5,-2 2,-2 6,-6 12,-11l56 -58c1,0 3,1 4,1 2,0 4,0 5,0 0,0 1,0 2,0 2,0 3,0 4,-1 1,0 2,0 3,0l-52 50z"/>
    <path class="fil0" d="M1481 342c-2,0 -3,0 -5,0 -2,0 -3,0 -4,0 -1,0 -3,0 -5,0 -2,0 -3,0 -4,0l0 -166c1,0 2,0 4,0 2,1 3,1 5,1 1,0 2,0 4,-1 2,0 3,0 5,0l0 22 0 0c3,-7 8,-13 13,-17 5,-5 14,-7 25,-7 10,0 18,3 25,7 7,5 12,12 16,20 3,8 5,16 5,26 0,12 -2,22 -6,31 -4,9 -10,16 -17,21 -8,5 -16,7 -26,7 -16,0 -27,-7 -35,-22l0 0 0 78zm33 -65c7,0 13,-3 18,-7 5,-4 8,-10 10,-18 2,-7 3,-15 3,-25 0,-12 -2,-23 -7,-31 -5,-8 -13,-12 -24,-12 -8,0 -15,2 -20,7 -5,5 -8,12 -10,19 -2,7 -3,15 -3,23 0,13 2,23 8,32 6,8 14,12 25,12z"/>
    <path class="fil0" d="M1674 273c-12,9 -25,13 -39,13 -10,0 -19,-2 -28,-6 -8,-5 -14,-11 -19,-20 -4,-8 -6,-18 -6,-30 0,-10 2,-20 6,-28 4,-9 10,-15 17,-20 8,-5 18,-7 29,-7 8,0 16,2 23,5 7,4 12,10 17,17 4,8 6,17 6,28 0,1 0,2 0,3 0,1 0,2 0,2 -16,0 -31,0 -46,0l-32 0c-1,1 -1,2 -1,4 0,8 2,15 5,22 3,6 8,11 14,15 6,4 13,6 21,6 11,0 23,-6 33,-16l0 12zm-12 -52c-1,-26 -10,-39 -28,-39 -7,0 -13,2 -17,5 -5,4 -9,9 -11,15 -2,6 -4,12 -4,19l60 0z"/>
    <path class="fil0" d="M1697 274c3,-6 6,-13 10,-21 4,-9 7,-17 11,-26 4,-9 8,-18 11,-27 4,-8 7,-16 9,-24 1,0 3,0 4,1 1,0 2,0 3,0 1,0 2,0 4,0 1,-1 2,-1 3,-1 2,6 6,15 10,27 5,12 10,24 15,35 4,12 9,24 14,36l9 0c0,3 -1,5 -1,8 0,4 1,7 1,8l-2 0c-3,-3 -8,-5 -13,-5 -6,-1 -14,-1 -24,-1l-34 0c-11,0 -18,0 -24,1 -5,0 -10,2 -13,5l-2 0c0,-1 1,-4 1,-8 0,-3 -1,-6 -1,-8l9 0zm76 0c-7,-20 -17,-45 -30,-77l-2 0c-1,3 -4,9 -7,16 -3,8 -7,17 -11,29 -5,11 -9,22 -12,32l62 0z"/>
    <path class="fil0" d="M1900 176l9 0 0 108c-1,0 -2,0 -4,0 -2,0 -4,0 -5,0 -1,0 -3,0 -5,0 -2,0 -3,0 -4,0l0 -78c-8,9 -16,18 -23,26 -7,9 -15,18 -22,27 -7,9 -13,17 -19,25l-9 0 0 -108c2,0 5,1 9,1 4,0 7,-1 9,-1l0 79c5,-5 10,-11 15,-17 5,-6 11,-12 17,-19 5,-7 11,-15 16,-22 6,-7 11,-14 16,-21z"/>
    <path class="fil0" d="M1986 284c-1,0 -2,0 -4,0 -3,0 -4,0 -5,0 -1,0 -3,0 -5,0 -2,0 -3,0 -4,0l0 -97c-17,0 -30,1 -39,2 0,-1 0,-2 0,-3 1,-1 1,-2 1,-3 0,-1 0,-2 -1,-3 0,-1 0,-2 0,-3l96 0c0,3 0,5 0,6 0,1 0,3 0,6 -8,-1 -21,-2 -39,-2l0 97z"/>
    <path class="fil0" d="M2068 274l23 0c7,0 14,-1 20,-4 5,-4 10,-8 13,-14 3,-5 5,-12 5,-18 0,-8 -3,-16 -8,-22 -5,-6 -11,-9 -20,-10 -3,0 -7,0 -14,0 -3,0 -6,0 -11,0 -4,0 -7,0 -8,0l0 68zm-20 -145l92 0c0,2 -1,4 -1,7 0,3 1,5 1,7 -8,-2 -15,-3 -20,-3l-28 0 -24 0 0 57 21 0c22,0 37,3 47,9 9,7 14,17 14,30 0,10 -2,17 -7,24 -4,7 -10,13 -17,17 -8,4 -17,6 -27,7 -7,0 -24,0 -51,0l0 -155z"/>
    <path class="fil0" d="M2256 265c0,5 0,8 1,9 0,2 2,3 5,3 2,0 4,-1 6,-1l0 5c-3,1 -5,2 -6,2 -3,1 -5,1 -8,1 -9,-1 -15,-5 -16,-14l-2 2c-9,9 -21,14 -33,14 -9,0 -16,-2 -22,-8 -6,-5 -9,-11 -9,-20 0,-7 2,-14 6,-18 4,-4 8,-8 14,-9 6,-2 13,-4 22,-5 7,-1 12,-2 15,-3 3,-1 6,-2 7,-4 2,-2 2,-5 2,-8 0,-9 -2,-15 -6,-20 -5,-5 -12,-7 -20,-7 -7,0 -13,2 -18,5 -5,4 -8,7 -9,11l-2 0 0 -13c12,-8 24,-12 36,-12 24,0 37,12 37,38l0 52zm-18 -37l-8 2c-3,0 -7,1 -12,2 -6,1 -10,3 -14,4 -4,2 -7,4 -9,7 -3,3 -4,7 -4,12 0,7 2,13 6,16 4,4 9,5 16,5 3,0 6,0 10,-2 3,-2 6,-4 8,-6 1,-1 2,-1 3,-2 1,-1 2,-2 3,-3 0,-1 1,-1 1,-2l0 -33z"/>
    <path class="fil0" d="M2366 222l0 -46c1,0 2,0 4,0 2,1 4,1 5,1 3,0 6,-1 9,-1l0 108c-1,0 -2,0 -4,0 -2,0 -4,0 -5,0 -3,0 -6,0 -9,0l0 -52c-3,0 -7,0 -13,-1 -5,0 -10,0 -14,0 -5,0 -10,0 -15,0 -6,1 -10,1 -13,1l0 52c-1,0 -2,0 -4,0 -3,0 -4,0 -5,0 -1,0 -3,0 -5,0 -2,0 -3,0 -4,0l0 -108c3,0 6,1 9,1 3,0 6,-1 9,-1l0 46c3,0 7,0 13,0 5,1 10,1 15,1 4,0 9,0 14,-1 6,0 10,0 13,0z"/>
    <path class="fil0" d="M2438 216c0,4 0,7 1,7 4,0 11,-4 20,-13l14 -15 17 -19c1,0 3,0 4,0 2,1 4,1 5,1 2,0 3,0 5,-1 1,0 3,0 4,0l0 2c0,0 -5,4 -13,11 -8,6 -14,12 -20,17 -5,5 -11,10 -17,15 5,5 11,13 19,22 8,10 15,17 19,23 5,5 10,11 16,17l0 1c-2,0 -4,0 -6,0 -3,0 -4,0 -5,0 -2,0 -4,0 -6,0 -3,0 -5,0 -6,0 -6,-8 -21,-25 -43,-51 -2,-2 -4,-3 -5,-3 -2,0 -3,3 -3,8l0 46c-1,0 -3,0 -5,0 -2,0 -3,0 -4,0 -1,0 -3,0 -5,0 -2,0 -4,0 -4,0l0 -108c0,0 2,0 4,0 2,1 3,1 5,1 1,0 2,0 4,-1 2,0 3,0 5,0l0 40z"/>
   </g>
   <g>
    <path class="fil0" d="M190 -4c33,24 46,32 79,56 -41,-7 -82,25 -106,61 19,-22 49,-42 82,-44 31,-3 61,6 88,27l47 35c-12,39 -16,54 -29,93 -6,-42 -48,-70 -91,-82 28,11 55,33 68,64 12,29 13,60 2,92l-19 56c-41,0 -56,1 -97,1 38,-19 51,-68 49,-112 -2,30 -14,63 -40,84 -24,20 -52,31 -86,31l-60 -1c-12,-40 -18,-53 -31,-92 29,30 81,28 122,12 -29,8 -64,6 -92,-12 -27,-16 -46,-40 -56,-73l-17 -56c33,-25 44,-34 77,-59 -19,38 -1,86 26,120 -16,-25 -25,-59 -17,-91 7,-31 25,-56 52,-76l49 -34z"/>
   </g>
  </g>
 </g>
</svg>
