<?xml version="1.0" encoding="UTF-8" standalone="no"?>
<!-- Creator: CorelDRAW X8 -->

<svg
   xmlns:dc="http://purl.org/dc/elements/1.1/"
   xmlns:cc="http://creativecommons.org/ns#"
   xmlns:rdf="http://www.w3.org/1999/02/22-rdf-syntax-ns#"
   xmlns:svg="http://www.w3.org/2000/svg"
   xmlns="http://www.w3.org/2000/svg"
   xmlns:sodipodi="http://sodipodi.sourceforge.net/DTD/sodipodi-0.dtd"
   xmlns:inkscape="http://www.inkscape.org/namespaces/inkscape"
   xml:space="preserve"
   width="2000"
   height="250"
   version="1.1"
   style="clip-rule:evenodd;fill-rule:evenodd;image-rendering:optimizeQuality;shape-rendering:geometricPrecision;text-rendering:geometricPrecision"
   viewBox="0 0 2000 250"
   id="svg2"
   inkscape:version="0.91 r13725"
   sodipodi:docname="logoShort.svg"><metadata
     id="metadata51"><rdf:RDF><cc:Work
         rdf:about=""><dc:format>image/svg+xml</dc:format><dc:type
           rdf:resource="http://purl.org/dc/dcmitype/StillImage" /><dc:title></dc:title></cc:Work></rdf:RDF></metadata><sodipodi:namedview
     pagecolor="#ffffff"
     bordercolor="#666666"
     borderopacity="1"
     objecttolerance="10"
     gridtolerance="10"
     guidetolerance="10"
     inkscape:pageopacity="0"
     inkscape:pageshadow="2"
     inkscape:window-width="1920"
     inkscape:window-height="1018"
     id="namedview49"
     showgrid="false"
     inkscape:zoom="0.42854956"
     inkscape:cx="1219.8832"
     inkscape:cy="196.95518"
     inkscape:window-x="-8"
     inkscape:window-y="-8"
     inkscape:window-maximized="1"
     inkscape:current-layer="Layer_x0020_1" /><defs
     id="defs4"><style
       type="text/css"
       id="style6"><![CDATA[
    .fil0 {fill:#C62829}
   ]]></style></defs><g
     id="Layer_x0020_1"
     transform="translate(0,-112)"><metadata
       id="CorelCorpID_0Corel-Layer" /><g
       id="g11"
       transform="translate(-512,18)"><path
         style="fill:#c62829"
         inkscape:connector-curvature="0"
         id="path13"
         d="m 617,149 0,114 c 9,0 17,-2 24,-5 7,-3 14,-7 19,-12 5,-5 9,-11 12,-18 2,-7 4,-14 4,-22 0,-11 -2,-20 -7,-29 -5,-8 -12,-15 -20,-21 -9,-5 -20,-7 -32,-7 z m -20,114 0,-114 c -12,0 -23,2 -32,7 -9,5 -15,12 -20,21 -5,9 -7,18 -7,29 0,8 1,15 4,22 3,7 7,13 12,18 5,5 12,9 19,12 7,3 15,5 24,5 z m 0,8 c -13,0 -24,-2 -34,-5 -10,-3 -19,-8 -26,-14 -7,-6 -12,-13 -16,-21 -3,-8 -5,-16 -5,-25 0,-13 3,-24 9,-34 7,-10 16,-17 28,-23 13,-5 27,-8 44,-8 l 0,-12 c 2,1 5,1 10,1 4,0 8,0 10,-1 l 0,12 c 17,0 31,3 43,8 13,6 22,13 28,23 7,10 10,21 10,34 0,12 -3,23 -10,33 -6,10 -15,18 -28,23 -12,6 -26,9 -43,9 l 0,13 c -2,0 -6,0 -10,0 -5,0 -8,0 -10,0 l 0,-13 z"
         class="fil0" /><path
         style="fill:#c62829"
         inkscape:connector-curvature="0"
         id="path15"
         d="m 807,176 10,0 0,108 c -1,0 -3,0 -5,0 -2,0 -4,0 -5,0 -1,0 -2,0 -4,0 -2,0 -4,0 -5,0 l 0,-78 c -8,9 -16,18 -23,26 -7,9 -14,18 -21,27 -8,9 -14,17 -20,25 l -9,0 0,-108 c 2,0 5,1 9,1 4,0 7,-1 9,-1 l 0,79 c 5,-5 10,-11 15,-17 6,-6 11,-12 17,-19 5,-7 11,-15 17,-22 5,-7 11,-14 15,-21 z"
         class="fil0" /><path
         style="fill:#c62829"
         inkscape:connector-curvature="0"
         id="path17"
         d="m 925,222 0,-46 c 0,0 2,0 4,0 2,1 3,1 5,1 3,0 6,-1 9,-1 l 0,108 c -1,0 -3,0 -5,0 -2,0 -3,0 -4,0 -3,0 -6,0 -9,0 l 0,-52 c -3,0 -7,0 -13,-1 -6,0 -11,0 -15,0 -4,0 -9,0 -15,0 -5,1 -10,1 -12,1 l 0,52 c -1,0 -3,0 -5,0 -2,0 -3,0 -4,0 -1,0 -3,0 -5,0 -2,0 -4,0 -5,0 l 0,-108 c 3,0 6,1 10,1 3,0 6,-1 9,-1 l 0,46 c 2,0 7,0 12,0 6,1 11,1 15,1 4,0 9,0 15,-1 6,0 10,0 13,0 z"
         class="fil0" /><path
         style="fill:#c62829"
         inkscape:connector-curvature="0"
         id="path19"
         d="m 1054,265 c 0,5 0,8 1,9 1,2 2,3 5,3 2,0 4,-1 7,-1 l 0,5 c -3,1 -6,2 -7,2 -3,1 -5,1 -7,1 -10,-1 -15,-5 -17,-14 l -2,2 c -9,9 -20,14 -33,14 -9,0 -16,-2 -22,-8 -6,-5 -9,-11 -9,-20 0,-7 2,-14 6,-18 4,-4 9,-8 14,-9 6,-2 13,-4 23,-5 6,-1 11,-2 14,-3 4,-1 6,-2 7,-4 2,-2 3,-5 3,-8 0,-9 -3,-15 -7,-20 -5,-5 -11,-7 -20,-7 -7,0 -13,2 -18,5 -5,4 -8,7 -9,11 l -2,0 0,-13 c 12,-8 24,-12 36,-12 25,0 37,12 37,38 l 0,52 z m -18,-37 -8,2 c -3,0 -7,1 -12,2 -6,1 -10,3 -14,4 -4,2 -7,4 -9,7 -3,3 -4,7 -4,12 0,7 2,13 6,16 4,4 9,5 16,5 3,0 7,0 10,-2 4,-2 6,-4 9,-6 0,-1 1,-1 2,-2 1,-1 2,-2 3,-3 0,-1 1,-1 1,-2 l 0,-33 z"
         class="fil0" /><path
         style="fill:#c62829"
         inkscape:connector-curvature="0"
         id="path21"
         d="m 1164,222 0,-46 c 1,0 2,0 4,0 2,1 4,1 5,1 3,0 6,-1 9,-1 l 0,108 c -1,0 -2,0 -4,0 -2,0 -4,0 -5,0 -3,0 -6,0 -9,0 l 0,-52 c -3,0 -7,0 -12,-1 -6,0 -11,0 -15,0 -5,0 -10,0 -15,0 -6,1 -10,1 -13,1 l 0,52 c -1,0 -2,0 -4,0 -2,0 -4,0 -5,0 -1,0 -2,0 -4,0 -2,0 -4,0 -5,0 l 0,-108 c 3,0 6,1 9,1 3,0 6,-1 9,-1 l 0,46 c 3,0 7,0 13,0 5,1 10,1 15,1 4,0 9,0 15,-1 5,0 9,0 12,0 z"
         class="fil0" /><path
         style="fill:#c62829"
         inkscape:connector-curvature="0"
         id="path23"
         d="m 1297,199 -2,0 c -3,-4 -5,-7 -6,-8 -2,-2 -6,-5 -10,-6 -4,-2 -8,-3 -12,-3 -9,0 -16,2 -22,7 -6,4 -10,10 -13,17 -3,7 -4,15 -4,23 0,9 1,18 5,26 3,7 8,13 14,17 7,4 14,7 22,7 6,0 11,-2 16,-4 5,-3 10,-6 15,-11 l 2,0 -1,11 c -11,7 -22,11 -35,11 -12,0 -23,-2 -32,-7 -8,-5 -15,-12 -19,-20 -5,-9 -7,-18 -7,-29 0,-11 2,-21 7,-30 5,-8 12,-14 21,-19 9,-4 19,-6 30,-6 14,0 26,3 36,9 l -5,15 z"
         class="fil0" /><path
         style="fill:#c62829"
         inkscape:connector-curvature="0"
         id="path25"
         d="m 1389,179 -19,19 c 4,5 9,11 14,16 4,5 9,10 13,15 5,5 10,11 15,17 6,6 10,11 13,15 l 18,22 0,1 c -1,0 -4,0 -6,0 -3,0 -5,0 -6,0 -2,0 -4,0 -7,0 -2,0 -5,0 -6,0 -5,-8 -11,-15 -15,-20 l -50,-58 c -1,-1 -2,-1 -3,-1 -1,0 -1,0 -1,0 l 0,79 c -1,0 -3,0 -5,0 -2,0 -4,0 -5,0 -1,0 -3,0 -5,0 -2,0 -4,0 -5,0 l 0,-155 c 1,0 2,0 3,1 2,0 3,0 4,0 1,0 2,0 3,0 1,0 2,0 3,0 2,0 3,0 4,-1 1,0 3,0 3,0 l 0,70 c 0,1 1,1 1,1 2,0 3,-1 5,-2 2,-2 6,-6 12,-11 l 56,-58 c 1,0 3,1 4,1 2,0 4,0 5,0 0,0 1,0 2,0 2,0 3,0 4,-1 1,0 2,0 3,0 l -52,50 z"
         class="fil0" /><path
         style="fill:#c62829"
         inkscape:connector-curvature="0"
         id="path27"
         d="m 1481,342 c -2,0 -3,0 -5,0 -2,0 -3,0 -4,0 -1,0 -3,0 -5,0 -2,0 -3,0 -4,0 l 0,-166 c 1,0 2,0 4,0 2,1 3,1 5,1 1,0 2,0 4,-1 2,0 3,0 5,0 l 0,22 0,0 c 3,-7 8,-13 13,-17 5,-5 14,-7 25,-7 10,0 18,3 25,7 7,5 12,12 16,20 3,8 5,16 5,26 0,12 -2,22 -6,31 -4,9 -10,16 -17,21 -8,5 -16,7 -26,7 -16,0 -27,-7 -35,-22 l 0,0 0,78 z m 33,-65 c 7,0 13,-3 18,-7 5,-4 8,-10 10,-18 2,-7 3,-15 3,-25 0,-12 -2,-23 -7,-31 -5,-8 -13,-12 -24,-12 -8,0 -15,2 -20,7 -5,5 -8,12 -10,19 -2,7 -3,15 -3,23 0,13 2,23 8,32 6,8 14,12 25,12 z"
         class="fil0" /><path
         style="fill:#c62829"
         inkscape:connector-curvature="0"
         id="path29"
         d="m 1674,273 c -12,9 -25,13 -39,13 -10,0 -19,-2 -28,-6 -8,-5 -14,-11 -19,-20 -4,-8 -6,-18 -6,-30 0,-10 2,-20 6,-28 4,-9 10,-15 17,-20 8,-5 18,-7 29,-7 8,0 16,2 23,5 7,4 12,10 17,17 4,8 6,17 6,28 0,1 0,2 0,3 0,1 0,2 0,2 -16,0 -31,0 -46,0 l -32,0 c -1,1 -1,2 -1,4 0,8 2,15 5,22 3,6 8,11 14,15 6,4 13,6 21,6 11,0 23,-6 33,-16 l 0,12 z m -12,-52 c -1,-26 -10,-39 -28,-39 -7,0 -13,2 -17,5 -5,4 -9,9 -11,15 -2,6 -4,12 -4,19 l 60,0 z"
         class="fil0" /><path
         style="fill:#c62829"
         inkscape:connector-curvature="0"
         id="path31"
         d="m 1697,274 c 3,-6 6,-13 10,-21 4,-9 7,-17 11,-26 4,-9 8,-18 11,-27 4,-8 7,-16 9,-24 1,0 3,0 4,1 1,0 2,0 3,0 1,0 2,0 4,0 1,-1 2,-1 3,-1 2,6 6,15 10,27 5,12 10,24 15,35 4,12 9,24 14,36 l 9,0 c 0,3 -1,5 -1,8 0,4 1,7 1,8 l -2,0 c -3,-3 -8,-5 -13,-5 -6,-1 -14,-1 -24,-1 l -34,0 c -11,0 -18,0 -24,1 -5,0 -10,2 -13,5 l -2,0 c 0,-1 1,-4 1,-8 0,-3 -1,-6 -1,-8 l 9,0 z m 76,0 c -7,-20 -17,-45 -30,-77 l -2,0 c -1,3 -4,9 -7,16 -3,8 -7,17 -11,29 -5,11 -9,22 -12,32 l 62,0 z"
         class="fil0" /><path
         style="fill:#c62829"
         inkscape:connector-curvature="0"
         id="path33"
         d="m 1900,176 9,0 0,108 c -1,0 -2,0 -4,0 -2,0 -4,0 -5,0 -1,0 -3,0 -5,0 -2,0 -3,0 -4,0 l 0,-78 c -8,9 -16,18 -23,26 -7,9 -15,18 -22,27 -7,9 -13,17 -19,25 l -9,0 0,-108 c 2,0 5,1 9,1 4,0 7,-1 9,-1 l 0,79 c 5,-5 10,-11 15,-17 5,-6 11,-12 17,-19 5,-7 11,-15 16,-22 6,-7 11,-14 16,-21 z"
         class="fil0" /><path
         style="fill:#c62829"
         inkscape:connector-curvature="0"
         id="path35"
         d="m 1986,284 c -1,0 -2,0 -4,0 -3,0 -4,0 -5,0 -1,0 -3,0 -5,0 -2,0 -3,0 -4,0 l 0,-97 c -17,0 -30,1 -39,2 0,-1 0,-2 0,-3 1,-1 1,-2 1,-3 0,-1 0,-2 -1,-3 0,-1 0,-2 0,-3 l 96,0 c 0,3 0,5 0,6 0,1 0,3 0,6 -8,-1 -21,-2 -39,-2 l 0,97 z"
         class="fil0" /><path
         style="fill:#c62829"
         inkscape:connector-curvature="0"
         id="path37"
         d="m 2068,274 23,0 c 7,0 14,-1 20,-4 5,-4 10,-8 13,-14 3,-5 5,-12 5,-18 0,-8 -3,-16 -8,-22 -5,-6 -11,-9 -20,-10 -3,0 -7,0 -14,0 -3,0 -6,0 -11,0 -4,0 -7,0 -8,0 l 0,68 z m -20,-145 92,0 c 0,2 -1,4 -1,7 0,3 1,5 1,7 -8,-2 -15,-3 -20,-3 l -28,0 -24,0 0,57 21,0 c 22,0 37,3 47,9 9,7 14,17 14,30 0,10 -2,17 -7,24 -4,7 -10,13 -17,17 -8,4 -17,6 -27,7 -7,0 -24,0 -51,0 l 0,-155 z"
         class="fil0" /><path
         style="fill:#c62829"
         inkscape:connector-curvature="0"
         id="path39"
         d="m 2256,265 c 0,5 0,8 1,9 0,2 2,3 5,3 2,0 4,-1 6,-1 l 0,5 c -3,1 -5,2 -6,2 -3,1 -5,1 -8,1 -9,-1 -15,-5 -16,-14 l -2,2 c -9,9 -21,14 -33,14 -9,0 -16,-2 -22,-8 -6,-5 -9,-11 -9,-20 0,-7 2,-14 6,-18 4,-4 8,-8 14,-9 6,-2 13,-4 22,-5 7,-1 12,-2 15,-3 3,-1 6,-2 7,-4 2,-2 2,-5 2,-8 0,-9 -2,-15 -6,-20 -5,-5 -12,-7 -20,-7 -7,0 -13,2 -18,5 -5,4 -8,7 -9,11 l -2,0 0,-13 c 12,-8 24,-12 36,-12 24,0 37,12 37,38 l 0,52 z m -18,-37 -8,2 c -3,0 -7,1 -12,2 -6,1 -10,3 -14,4 -4,2 -7,4 -9,7 -3,3 -4,7 -4,12 0,7 2,13 6,16 4,4 9,5 16,5 3,0 6,0 10,-2 3,-2 6,-4 8,-6 1,-1 2,-1 3,-2 1,-1 2,-2 3,-3 0,-1 1,-1 1,-2 l 0,-33 z"
         class="fil0" /><path
         style="fill:#c62829"
         inkscape:connector-curvature="0"
         id="path41"
         d="m 2366,222 0,-46 c 1,0 2,0 4,0 2,1 4,1 5,1 3,0 6,-1 9,-1 l 0,108 c -1,0 -2,0 -4,0 -2,0 -4,0 -5,0 -3,0 -6,0 -9,0 l 0,-52 c -3,0 -7,0 -13,-1 -5,0 -10,0 -14,0 -5,0 -10,0 -15,0 -6,1 -10,1 -13,1 l 0,52 c -1,0 -2,0 -4,0 -3,0 -4,0 -5,0 -1,0 -3,0 -5,0 -2,0 -3,0 -4,0 l 0,-108 c 3,0 6,1 9,1 3,0 6,-1 9,-1 l 0,46 c 3,0 7,0 13,0 5,1 10,1 15,1 4,0 9,0 14,-1 6,0 10,0 13,0 z"
         class="fil0" /><path
         style="fill:#c62829"
         inkscape:connector-curvature="0"
         id="path43"
         d="m 2438,216 c 0,4 0,7 1,7 4,0 11,-4 20,-13 l 14,-15 17,-19 c 1,0 3,0 4,0 2,1 4,1 5,1 2,0 3,0 5,-1 1,0 3,0 4,0 l 0,2 c 0,0 -5,4 -13,11 -8,6 -14,12 -20,17 -5,5 -11,10 -17,15 5,5 11,13 19,22 8,10 15,17 19,23 5,5 10,11 16,17 l 0,1 c -2,0 -4,0 -6,0 -3,0 -4,0 -5,0 -2,0 -4,0 -6,0 -3,0 -5,0 -6,0 -6,-8 -21,-25 -43,-51 -2,-2 -4,-3 -5,-3 -2,0 -3,3 -3,8 l 0,46 c -1,0 -3,0 -5,0 -2,0 -3,0 -4,0 -1,0 -3,0 -5,0 -2,0 -4,0 -4,0 l 0,-108 c 0,0 2,0 4,0 2,1 3,1 5,1 1,0 2,0 4,-1 2,0 3,0 5,0 l 0,40 z"
         class="fil0" /></g><flowRoot
       xml:space="preserve"
       id="flowRoot4183"
       style="font-style:normal;font-weight:normal;font-size:40px;line-height:125%;font-family:sans-serif;letter-spacing:0px;word-spacing:0px;fill:#000000;fill-opacity:1;stroke:none;stroke-width:1px;stroke-linecap:butt;stroke-linejoin:miter;stroke-opacity:1"><flowRegion
         id="flowRegion4185"><rect
           id="rect4187"
           width="639.36597"
           height="127.17316"
           x="28.001429"
           y="428.50339" /></flowRegion><flowPara
         id="flowPara4189"></flowPara></flowRoot></g></svg>