<?xml version="1.0" encoding="UTF-8" standalone="no"?>
<svg
   xmlns:dc="http://purl.org/dc/elements/1.1/"
   xmlns:cc="http://creativecommons.org/ns#"
   xmlns:rdf="http://www.w3.org/1999/02/22-rdf-syntax-ns#"
   xmlns:svg="http://www.w3.org/2000/svg"
   xmlns="http://www.w3.org/2000/svg"
   xmlns:sodipodi="http://sodipodi.sourceforge.net/DTD/sodipodi-0.dtd"
   xmlns:inkscape="http://www.inkscape.org/namespaces/inkscape"
   viewBox="0 0 100 75"
   version="1.1"
   xml:space="preserve"
   x="0px"
   y="0px"
   id="svg2"
   inkscape:version="0.91 r13725"
   sodipodi:docname="exchange.svg"
   width="100"
   height="75"><metadata
     id="metadata16"><rdf:RDF><cc:Work
         rdf:about=""><dc:format>image/svg+xml</dc:format><dc:type
           rdf:resource="http://purl.org/dc/dcmitype/StillImage" /><dc:title></dc:title></cc:Work></rdf:RDF></metadata><defs
     id="defs14" /><sodipodi:namedview
     pagecolor="#ffffff"
     bordercolor="#666666"
     borderopacity="1"
     objecttolerance="10"
     gridtolerance="10"
     guidetolerance="10"
     inkscape:pageopacity="0"
     inkscape:pageshadow="2"
     inkscape:window-width="1920"
     inkscape:window-height="1018"
     id="namedview12"
     showgrid="false"
     inkscape:zoom="1.888"
     inkscape:cx="50"
     inkscape:cy="62.5"
     inkscape:window-x="-8"
     inkscape:window-y="-8"
     inkscape:window-maximized="1"
     inkscape:current-layer="svg2" /><g
     id="g4"
     transform="translate(0,-12)"
     style="fill:#d40000"><path
       d="m 88.0587,69.1842 c 4.2674,-8.5538 5.6852,-18.6044 3.3317,-28.6663 -1.8813,-8.0435 -5.9227,-15.0237 -11.3642,-20.4671 0,0 -6.7277,6.6401 -7.2806,7.1125 4.1805,4.1504 7.2857,9.4884 8.7259,15.6455 1.8022,7.7048 0.6952,15.4015 -2.6043,21.9348 L 73.7783,62.2842 75.5017,84.2917 93.6354,71.8783 88.0587,69.1842 Z M 12.5643,29.865 c -4.7038,8.784 -6.3514,19.2654 -3.897,29.759 1.8138,7.7542 5.6345,14.521 10.7825,19.8747 0,0 6.7578,-6.8078 7.1684,-7.2299 C 22.7881,68.2266 19.9456,63.1447 18.5863,57.3331 16.6831,49.1963 18.0245,41.0687 21.7665,34.3106 L 27.4016,37.0337 25.6782,15.0261 7.5445,27.4396 12.5643,29.865 Z M 38.9121,61.3673 36.8912,66.99 c 3.6251,1.6855 7.2693,2.5286 11.251,2.8414 l -1e-4,7.5868 5.8282,0 -3e-4,-7.7097 C 56.9179,69.2472 59.4743,68.341 61.7068,66.3197 63.7912,64.4326 64.79,61.3722 64.711,58.6204 64.3203,45.0167 47.2183,47.7979 45.1805,42.1136 41.8894,32.9333 56.9436,35.0337 61.4494,36.7482 l 1.47,-6.0182 c -2.8449,-1.1993 -5.8966,-1.663 -8.9493,-1.9538 l 2e-4,-6.6171 -5.8282,0 1e-4,6.8083 c -3.9134,0.6772 -7.5634,2.3647 -9.3222,6.1432 -0.7508,1.6128 -1.0546,3.4082 -1.0546,5.1794 0,11.7236 15.6677,9.5968 19.0364,15.5912 0.8132,1.4471 0.8721,4.03 0.0268,5.4817 -2.7442,4.7133 -13.7537,1.9672 -17.9165,0.0044 z"
       id="path6"
       inkscape:connector-curvature="0"
       style="fill:#d40000" /></g></svg>