<?xml version="1.0" encoding="UTF-8" standalone="no"?>
<svg
   xmlns:dc="http://purl.org/dc/elements/1.1/"
   xmlns:cc="http://creativecommons.org/ns#"
   xmlns:rdf="http://www.w3.org/1999/02/22-rdf-syntax-ns#"
   xmlns:svg="http://www.w3.org/2000/svg"
   xmlns="http://www.w3.org/2000/svg"
   xmlns:sodipodi="http://sodipodi.sourceforge.net/DTD/sodipodi-0.dtd"
   xmlns:inkscape="http://www.inkscape.org/namespaces/inkscape"
   version="1.1"
   x="0px"
   y="0px"
   viewBox="0 0 20 16"
   enable-background="new 0 0 100 100"
   xml:space="preserve"
   id="svg2"
   inkscape:version="0.91 r13725"
   sodipodi:docname="kgs_exch.svg"
   width="20"
   height="16"><metadata
     id="metadata14"><rdf:RDF><cc:Work
         rdf:about=""><dc:format>image/svg+xml</dc:format><dc:type
           rdf:resource="http://purl.org/dc/dcmitype/StillImage" /><dc:title /></cc:Work></rdf:RDF></metadata><defs
     id="defs12" /><sodipodi:namedview
     pagecolor="#ffffff"
     bordercolor="#666666"
     borderopacity="1"
     objecttolerance="10"
     gridtolerance="10"
     guidetolerance="10"
     inkscape:pageopacity="0"
     inkscape:pageshadow="2"
     inkscape:window-width="1920"
     inkscape:window-height="1018"
     id="namedview10"
     showgrid="false"
     inkscape:zoom="16"
     inkscape:cx="20.53125"
     inkscape:cy="8.496499"
     inkscape:window-x="-8"
     inkscape:window-y="-8"
     inkscape:window-maximized="1"
     inkscape:current-layer="svg2"
     showguides="false" /><path
     d="M 2.5056117,9.177026 1.466079,9.150348 3.1158843,6.3810106 4.827332,9.02933 3.8590046,9.192377 c 0.5892206,2.846179 3.0892819,5.14186 6.1151472,5.176181 2.5429522,0.02884 4.7466742,-1.450808 5.7751562,-3.604496 l 1.013548,0.949258 C 15.448553,14.115496 12.887814,15.732491 9.9590579,15.699271 6.19594,15.656587 3.1067011,12.76311 2.5056117,9.177026 Z M 16.304413,7.3175061 C 15.894946,4.2540109 13.29849,1.7581446 10.117597,1.7220647 7.4389987,1.6916821 5.1358702,3.3338407 4.1876275,5.6751997 l -1.02597,-0.9608522 c 1.2529497,-2.5850063 3.9081763,-4.3579561 6.9710365,-4.323215 3.917265,0.044432 7.107054,3.1405639 7.516746,6.9414095 l 1.033146,0.089106 -1.650392,2.739204 -1.648143,-2.8054637 z"
     id="path4"
     inkscape:connector-curvature="0"
     style="clip-rule:evenodd;fill-rule:evenodd"
     sodipodi:nodetypes="cccccsccsccsccsccccc" /><text
     xml:space="preserve"
     style="font-style:normal;font-variant:normal;font-weight:bold;font-stretch:normal;font-size:5.35740423px;line-height:125%;font-family:sans-serif;-inkscape-font-specification:'sans-serif Bold';letter-spacing:0px;word-spacing:0px;fill:#000000;fill-opacity:1;stroke:none;stroke-width:1px;stroke-linecap:butt;stroke-linejoin:miter;stroke-opacity:1"
     x="6.583487"
     y="8.4642143"
     id="text4151"
     sodipodi:linespacing="125%"
     transform="scale(0.80788452,1.2378007)"><tspan
       sodipodi:role="line"
       id="tspan4153"
       x="6.583487"
       y="8.4642143">KGS</tspan></text>
<path
     style="fill:#d40000;fill-opacity:1;fill-rule:nonzero;stroke:#d40000;stroke-width:0.31562501;stroke-miterlimit:4;stroke-dasharray:none;stroke-opacity:1"
     d="M 16.947646,9.9442948 C 16.824254,9.7530973 15.46875,7.441131 15.46875,7.4218685 c 0,-0.00809 0.194862,-0.033918 0.433028,-0.057386 l 0.433028,-0.042669 -0.03547,-0.2310312 C 16.177584,6.2977111 15.730919,5.2131657 15.200317,4.422251 14.620145,3.5574481 13.456579,2.6057494 12.484824,2.2012068 11.557728,1.8152558 11.164669,1.7419634 10.03125,1.7436978 8.8915464,1.7454418 8.4910561,1.8209657 7.5549164,2.2106817 6.2629042,2.7485477 4.9920739,3.9486298 4.3688334,5.2193929 4.2719657,5.4169023 4.1774754,5.5771541 4.1588551,5.575508 4.1402348,5.5738618 3.9152463,5.3781764 3.6588805,5.1406514 L 3.192761,4.7087878 3.3405572,4.4405194 C 4.0994741,3.0629909 5.3077514,1.9016742 6.7129813,1.1991669 8.4262576,0.34265989 10.551078,0.19541368 12.388113,0.80589051 c 1.853124,0.61582359 3.551592,2.09905699 4.450926,3.88689259 0.272318,0.5413562 0.609398,1.571155 0.710427,2.1703954 l 0.08372,0.4965725 0.453425,0.040851 c 0.249383,0.022468 0.466486,0.053913 0.48245,0.069877 0.01596,0.015964 -0.320972,0.6121882 -0.748746,1.3249425 -0.761008,1.2679855 -0.779817,1.2927475 -0.872669,1.1488732 z"
     id="path4135"
     inkscape:connector-curvature="0" /><path
     style="fill:#d40000;fill-opacity:1;fill-rule:nonzero;stroke:#d40000;stroke-width:0.32509333;stroke-miterlimit:4;stroke-dasharray:none;stroke-opacity:1"
     d="m 5.7179358,8.0451354 0,-2.3872983 0.3931825,0 0.3931826,0 0.015841,0.8983683 0.015841,0.8983684 L 7.1283614,6.5585946 7.72074,5.6626153 8.1613521,5.6602253 8.6019643,5.6578353 7.8651628,6.7629148 C 7.4599216,7.3707105 7.1283609,7.8984019 7.1283609,7.9355645 c 0,0.037162 0.3236926,0.5571739 0.7193169,1.155581 0.3956242,0.5984071 0.7541599,1.1449995 0.796746,1.2146505 0.07207,0.117874 0.044738,0.126387 -0.394919,0.123014 L 7.7771565,10.425188 7.1565694,9.4758841 6.5359824,8.5265807 6.5202407,9.4795072 6.504499,10.432434 l -0.3932816,0 -0.3932816,0 0,-2.3872986 z"
     id="path4137"
     inkscape:connector-curvature="0" /><path
     style="fill:#d40000;fill-opacity:1;fill-rule:nonzero;stroke:#d40000;stroke-width:0.32509333;stroke-miterlimit:4;stroke-dasharray:none;stroke-opacity:1"
     d="M 9.9806821,10.4004 C 9.5234909,10.179887 9.1609725,9.6497827 9.0124441,8.9845617 8.8829782,8.4047167 8.9249639,7.3708615 9.0989619,6.854148 9.2523043,6.3987743 9.6672444,5.8669305 9.9805618,5.7241694 10.3176,5.5706 11.10153,5.5918176 11.458366,5.7641669 l 0.296189,0.1430576 0,0.4588851 0,0.4588852 -0.316663,-0.1887564 C 11.206339,6.4982147 11.027291,6.4474819 10.771723,6.4474819 c -0.729423,0 -1.0411444,0.4874624 -1.0451523,1.6343811 -0.00267,0.7649274 0.1740793,1.2673688 0.5171673,1.4701158 0.276721,0.1635273 0.709627,0.1898896 0.854429,0.052031 0.0787,-0.074934 0.09511,-0.182363 0.0813,-0.5325511 L 11.162177,8.632778 10.922405,8.610191 10.682632,8.587604 l 0,-0.3630532 0,-0.3630532 0.592379,0 0.592378,0 0,1.1295121 0,1.1295123 -0.296189,0.169455 c -0.3773,0.21586 -1.246763,0.276223 -1.5905179,0.110424 z"
     id="path4139"
     inkscape:connector-curvature="0" /><path
     style="fill:#d40000;fill-opacity:1;fill-rule:nonzero;stroke:#d40000;stroke-width:0.32509333;stroke-miterlimit:4;stroke-dasharray:none;stroke-opacity:1"
     d="m 13.108564,10.422842 c -0.504696,-0.1784 -0.507753,-0.182573 -0.507753,-0.6930818 l 0,-0.4644843 0.310125,0.1848595 c 0.597474,0.356141 1.208142,0.3057642 1.310445,-0.1081047 0.116969,-0.473202 -0.01638,-0.6618987 -0.605064,-0.8562024 -0.769665,-0.2540389 -1.04159,-0.640123 -1.0378,-1.4734883 0.0026,-0.5772185 0.182813,-1.0217901 0.501838,-1.2381702 0.269874,-0.1830428 0.953095,-0.2082605 1.42453,-0.052579 l 0.296189,0.09781 0,0.463076 0,0.463076 -0.29398,-0.1454388 c -0.408513,-0.202101 -0.975509,-0.2035042 -1.129662,-0.0028 -0.138847,0.1807791 -0.146978,0.4866475 -0.01787,0.6723878 0.05272,0.075842 0.27803,0.19504 0.5007,0.264885 0.872993,0.2738319 1.11712,0.5966772 1.11712,1.4773379 0,1.0371243 -0.378682,1.4995943 -1.217868,1.4873353 -0.249417,-0.0036 -0.542342,-0.03803 -0.650946,-0.07642 z"
     id="path4141"
     inkscape:connector-curvature="0" /><path
     style="fill:#d40000;fill-opacity:1;fill-rule:nonzero;stroke:#d40000;stroke-width:0.31562501;stroke-miterlimit:4;stroke-dasharray:none;stroke-opacity:1"
     d="M 8.5646356,15.514179 C 6.3083481,15.038949 4.3465591,13.511177 3.2822529,11.400448 2.9948099,10.830392 2.7071884,10.031181 2.5950066,9.4908042 L 2.5234109,9.1459296 2.0259625,9.1278403 1.528514,9.109751 2.3209291,7.7761054 3.1133441,6.4424598 3.676379,7.3073554 C 3.9860482,7.783048 4.3599724,8.3602691 4.5073217,8.590069 L 4.7752296,9.0078871 4.3094897,9.0830189 C 4.0051753,9.1321101 3.84375,9.1865543 3.84375,9.2400996 c 0,0.045072 0.073653,0.3154318 0.1636729,0.6008 0.5990333,1.8989654 2.0683293,3.4662094 3.891644,4.1510744 2.8464911,1.069184 6.0731951,-0.0971 7.6275191,-2.756944 l 0.244598,-0.41857 0.478807,0.459146 0.478808,0.459145 -0.310228,0.46875 c -1.135242,1.715333 -2.88438,2.904523 -4.865888,3.30818 -0.841664,0.171457 -2.1805536,0.172576 -2.9880474,0.0025 l 0,-2e-6 z"
     id="path4143"
     inkscape:connector-curvature="0" /></svg>