<?xml version="1.0" encoding="UTF-8" standalone="no"?>
<svg
   xmlns:dc="http://purl.org/dc/elements/1.1/"
   xmlns:cc="http://creativecommons.org/ns#"
   xmlns:rdf="http://www.w3.org/1999/02/22-rdf-syntax-ns#"
   xmlns:svg="http://www.w3.org/2000/svg"
   xmlns="http://www.w3.org/2000/svg"
   xmlns:sodipodi="http://sodipodi.sourceforge.net/DTD/sodipodi-0.dtd"
   xmlns:inkscape="http://www.inkscape.org/namespaces/inkscape"
   version="1.1"
   x="0px"
   y="0px"
   viewBox="0 0 20 16"
   enable-background="new 0 0 100 100"
   xml:space="preserve"
   id="svg2"
   inkscape:version="0.91 r13725"
   sodipodi:docname="kgs_exch.svg"
   width="20"
   height="16"><metadata
     id="metadata14"><rdf:RDF><cc:Work
         rdf:about=""><dc:format>image/svg+xml</dc:format><dc:type
           rdf:resource="http://purl.org/dc/dcmitype/StillImage" /><dc:title /></cc:Work></rdf:RDF></metadata><defs
     id="defs12" /><sodipodi:namedview
     pagecolor="#ffffff"
     bordercolor="#666666"
     borderopacity="1"
     objecttolerance="10"
     gridtolerance="10"
     guidetolerance="10"
     inkscape:pageopacity="0"
     inkscape:pageshadow="2"
     inkscape:window-width="1920"
     inkscape:window-height="1018"
     id="namedview10"
     showgrid="false"
     inkscape:zoom="16"
     inkscape:cx="20.53125"
     inkscape:cy="8.496499"
     inkscape:window-x="-8"
     inkscape:window-y="-8"
     inkscape:window-maximized="1"
     inkscape:current-layer="svg2"
     showguides="false" /><path
     d="M 2.5056117,9.177026 1.466079,9.150348 3.1158843,6.3810106 4.827332,9.02933 3.8590046,9.192377 c 0.5892206,2.846179 3.0892819,5.14186 6.1151472,5.176181 2.5429522,0.02884 4.7466742,-1.450808 5.7751562,-3.604496 l 1.013548,0.949258 C 15.448553,14.115496 12.887814,15.732491 9.9590579,15.699271 6.19594,15.656587 3.1067011,12.76311 2.5056117,9.177026 Z M 16.304413,7.3175061 C 15.894946,4.2540109 13.29849,1.7581446 10.117597,1.7220647 7.4389987,1.6916821 5.1358702,3.3338407 4.1876275,5.6751997 l -1.02597,-0.9608522 c 1.2529497,-2.5850063 3.9081763,-4.3579561 6.9710365,-4.323215 3.917265,0.044432 7.107054,3.1405639 7.516746,6.9414095 l 1.033146,0.089106 -1.650392,2.739204 -1.648143,-2.8054637 z"
     id="path4"
     inkscape:connector-curvature="0"
     style="clip-rule:evenodd;fill-rule:evenodd;fill:#d40000"
     sodipodi:nodetypes="cccccsccsccsccsccccc" /><text
     xml:space="preserve"
     style="font-style:normal;font-variant:normal;font-weight:bold;font-stretch:normal;font-size:4.9554143px;line-height:125%;font-family:sans-serif;-inkscape-font-specification:'sans-serif Bold';letter-spacing:0px;word-spacing:0px;fill:#d40000;fill-opacity:1;stroke:none;stroke-width:1px;stroke-linecap:butt;stroke-linejoin:miter;stroke-opacity:1;"
     x="5.5104694"
     y="9.6903515"
     id="text4151"
     sodipodi:linespacing="125%"
     transform="scale(0.9572585,1.0446499)"><tspan
       sodipodi:role="line"
       id="tspan4153"
       x="5.5104694"
       y="9.6903515"
       style="font-style:normal;font-variant:normal;font-weight:normal;font-stretch:normal;font-family:sans-serif;-inkscape-font-specification:sans-serif;fill:#d40000;">KGS</tspan></text>
</svg>