<?xml version="1.0" encoding="UTF-8" standalone="no"?>
<svg
   xmlns:dc="http://purl.org/dc/elements/1.1/"
   xmlns:cc="http://creativecommons.org/ns#"
   xmlns:rdf="http://www.w3.org/1999/02/22-rdf-syntax-ns#"
   xmlns:svg="http://www.w3.org/2000/svg"
   xmlns="http://www.w3.org/2000/svg"
   xmlns:sodipodi="http://sodipodi.sourceforge.net/DTD/sodipodi-0.dtd"
   xmlns:inkscape="http://www.inkscape.org/namespaces/inkscape"
   version="1.1"
   x="0px"
   y="0px"
   viewBox="0 0 18 10"
   enable-background="new 0 0 100 100"
   xml:space="preserve"
   id="svg2"
   inkscape:version="0.91 r13725"
   sodipodi:docname="kgs_exch.svg"
   width="18"
   height="10"><metadata
     id="metadata14"><rdf:RDF><cc:Work
         rdf:about=""><dc:format>image/svg+xml</dc:format><dc:type
           rdf:resource="http://purl.org/dc/dcmitype/StillImage" /><dc:title></dc:title></cc:Work></rdf:RDF></metadata><defs
     id="defs12" /><sodipodi:namedview
     pagecolor="#ffffff"
     bordercolor="#666666"
     borderopacity="1"
     objecttolerance="10"
     gridtolerance="10"
     guidetolerance="10"
     inkscape:pageopacity="0"
     inkscape:pageshadow="2"
     inkscape:window-width="1920"
     inkscape:window-height="1018"
     id="namedview10"
     showgrid="false"
     inkscape:zoom="16"
     inkscape:cx="20.53125"
     inkscape:cy="8.496499"
     inkscape:window-x="-8"
     inkscape:window-y="-8"
     inkscape:window-maximized="1"
     inkscape:current-layer="svg2"
     showguides="false" /><path
     d="M 1.4431117,5.7252921 0.403579,5.7085252 2.0533843,3.9680244 3.764832,5.6324666 2.7965046,5.7349401 C 3.3857252,7.523735 5.8857865,8.966546 8.9116518,8.988118 11.454604,9.006248 13.658326,8.076299 14.686808,6.7227281 L 15.700356,7.319329 C 14.386053,8.829071 11.825314,9.845336 8.8965579,9.824458 5.13344,9.79763 2.0442011,7.97911 1.4431117,5.7252921 Z M 15.241913,4.5566026 C 14.832446,2.6312263 12.23599,1.0625995 9.055097,1.0399236 6.3764987,1.0208286 4.0733702,2.0529088 3.1251275,3.5244294 l -1.02597,-0.603886 C 3.3521072,1.2958929 6.0073338,0.1816117 9.070194,0.2034462 c 3.917265,0.027924 7.107054,1.9738129 7.516746,4.3626062 l 1.033146,0.056002 -1.650392,1.7215621 -1.648143,-1.7632057 z"
     id="path4"
     inkscape:connector-curvature="0"
     style="clip-rule:evenodd;fill:#d40000;fill-rule:evenodd"
     sodipodi:nodetypes="cccccsccsccsccsccccc" /><text
     xml:space="preserve"
     style="font-style:normal;font-variant:normal;font-weight:bold;font-stretch:normal;font-size:4.9554143px;line-height:125%;font-family:sans-serif;-inkscape-font-specification:'sans-serif Bold';letter-spacing:0px;word-spacing:0px;fill:#d40000;fill-opacity:1;stroke:none;stroke-width:1px;stroke-linecap:butt;stroke-linejoin:miter;stroke-opacity:1"
     x="4.4005289"
     y="6.6989188"
     id="text4151"
     sodipodi:linespacing="125%"
     transform="scale(0.9572585,1.0446499)"><tspan
       sodipodi:role="line"
       id="tspan4153"
       x="4.4005289"
       y="6.6989188"
       style="font-style:normal;font-variant:normal;font-weight:normal;font-stretch:normal;font-family:sans-serif;-inkscape-font-specification:sans-serif;fill:#d40000">KGS</tspan></text>
</svg>