<svg preserveAspectRatio="xMinYMin meet" viewBox="0 0 88.6 44">
	  <style type="text/css">
   .st0 {
    fill: #DF202E;
	}
.st1 {
    fill: #FFF;
}.st4 {
    fill: #FAC80D;
}
  </style>
	<rect y="0" class="st0" width="88.6" height="44.3"></rect>
	<path class="st1" d="M82.4,14.2c0,0.4-0.1,0.7-0.4,1s-0.6,0.4-1,0.4s-0.7-0.1-1-0.4s-0.4-0.6-0.4-1s0.1-0.7,0.4-1s0.6-0.4,1-0.4
		s0.7,0.1,1,0.4C82.2,13.6,82.4,13.9,82.4,14.2L82.4,14.2z M82.2,14.2c0-0.3-0.1-0.6-0.4-0.8C81.6,13.1,81.3,13,81,13
		s-0.6,0.1-0.9,0.4c-0.2,0.2-0.3,0.5-0.3,0.8s0.1,0.6,0.3,0.9c0.3,0.2,0.5,0.3,0.9,0.3c0.3,0,0.6-0.1,0.8-0.3
		C82.1,14.9,82.2,14.6,82.2,14.2L82.2,14.2z M81.9,15h-0.4L81,14.4h-0.3V15h-0.3v-1.5h0.5c0.1,0,0.2,0,0.3,0c0.1,0,0.1,0,0.2,0.1
		s0.1,0.1,0.1,0.1c0,0.1,0,0.1,0,0.2s0,0.2-0.1,0.3c-0.1,0.1-0.1,0.1-0.2,0.1L81.9,15z M81.3,13.9C81.3,13.9,81.3,13.8,81.3,13.9
		c0-0.1-0.1-0.1-0.1-0.2h-0.1H81h-0.2v0.5H81c0.1,0,0.1,0,0.2,0s0.1-0.1,0.1-0.1c0.1,0,0.1-0.1,0.1-0.1C81.3,14,81.3,14,81.3,13.9
		L81.3,13.9z"></path>
	<path class="st1" d="M32.8,12.6c0,1-0.4,1.8-1.3,2.3C32.3,15.3,33,16,33,17c0,1.5-0.9,2.7-2.3,3.2c-0.5,0.2-1.1,0.3-1.7,0.3
		c-1.3,0-2.9-0.5-3.9-1.4l0.7-1.1c0.2-0.3,0.7-0.3,1-0.1c0.7,0.4,1.3,0.7,2.2,0.7c1,0,1.7-0.3,1.7-1.5c0-1-1-1.3-1.8-1.3h-1.5V14
		h1.3c0.6,0,1.1-0.1,1.3-0.3c0.3-0.2,0.4-0.5,0.4-0.9c0-0.9-0.9-1.1-1.6-1.1c-0.8,0-1.3,0.3-1.9,0.6c-0.4,0.2-0.7,0.1-0.9-0.2
		L25.4,11c0.9-0.8,2.2-1.1,3.5-1.1c0.6,0,1.1,0.1,1.6,0.2C31.8,10.4,32.8,11.2,32.8,12.6L32.8,12.6z"></path>
	<path class="st1" d="M37.5,12.8c2.3,0,3.8,1.5,3.8,3.8s-1.5,3.9-3.8,3.9s-3.9-1.5-3.9-3.9C33.6,14.4,35.1,12.8,37.5,12.8L37.5,12.8
		z M37.5,18.9c1.3,0,1.5-1.2,1.5-2.2c0-1.1-0.2-2.2-1.5-2.2S36,15.6,36,16.7C35.9,17.7,36.2,18.9,37.5,18.9L37.5,18.9z"></path>
	<path class="st1" d="M48.7,13v7.5h-2.2v-5.8h-1.6c-0.1,1.5-0.1,3.8-1,5c-0.4,0.5-0.8,0.8-1.4,0.9c-0.3,0.1-0.6,0.1-0.9,0.1
		c-0.1,0-0.3,0-0.4-0.1c-0.1-0.1-0.1-0.2-0.1-0.3V19l0,0c0.2,0,0.3,0,0.5-0.1c0.5-0.1,0.7-0.5,0.9-0.9c0.6-1.2,0.4-3.7,0.5-5
		C43,13,48.7,13,48.7,13z"></path>
	<path class="st1" d="M53.3,12.8c2.3,0,3.8,1.5,3.8,3.8s-1.5,3.9-3.8,3.9s-3.8-1.6-3.8-3.9S51,12.8,53.3,12.8L53.3,12.8z M53.3,18.9
		c1.3,0,1.5-1.2,1.5-2.2c0-1.1-0.2-2.2-1.5-2.2s-1.5,1.1-1.5,2.2C51.7,17.7,52,18.9,53.3,18.9L53.3,18.9z"></path>
	<polygon class="st1" points="57,13 64,13 64,14.6 61.7,14.6 61.7,20.4 59.4,20.4 59.4,14.6 57,14.6 	"></polygon>
	<path class="st1" d="M77.8,20.4h-2.1v-2.9c-0.2,0-0.5,0-0.7,0.2c-0.1,0.1-0.2,0.3-0.3,0.4L74,19.7c-0.3,0.6-0.7,0.7-1.4,0.7h-1.5
		l1.5-2.5c0.3-0.5,0.5-0.7,1-0.8c-1-0.2-1.9-0.8-1.9-1.9c0-0.6,0.3-1.1,0.7-1.5c0.7-0.5,1.5-0.7,2.4-0.7h3V20.4z M74.2,16
		c0.2,0.2,0.4,0.3,0.7,0.3h0.8v-1.9h-0.8c-0.4,0-0.8,0.2-0.9,0.6C73.9,15.3,73.9,15.7,74.2,16L74.2,16z"></path>
	<path class="st1" d="M14.3,25h0.6c0.3,0,0.5-0.1,0.7-0.1c0.2-0.1,0.4-0.3,0.5-0.5c0.9-1.1,1.8-4.1,3.5-4.8c1.3-0.5,2.4-0.4,3-0.4
		v2.1c0,1-1,0.7-1.7,1.2c-1.2,0.9-1.2,3.1-2.6,3.6c0.5,0.1,0.8,0.3,1.2,0.6c0.3,0.3,0.6,0.7,0.9,1.2l3.3,5.8h-3.2
		c-0.7,0-1.1-0.4-1.3-1l-2.5-4.4c-0.3-0.6-0.7-0.8-1.3-0.8h-1v6.1h-3.5V19.1h3.5V25H14.3z"></path>
	<path class="st1" d="M28.2,22.7c3.4,0,5.5,2.3,5.5,5.6c0,0.9-0.1,1.7-0.4,2.3c-0.9,2.2-2.8,3.3-5.1,3.3s-4.3-1.1-5.2-3.3
		c-0.3-0.7-0.4-1.5-0.4-2.3C22.6,25,24.7,22.7,28.2,22.7L28.2,22.7z M28.2,31.5c1.9,0,2.2-1.7,2.2-3.2s-0.3-3.2-2.2-3.2
		S26,26.7,26,28.3C25.9,29.9,26.3,31.5,28.2,31.5L28.2,31.5z"></path>
	<path class="st1" d="M34.5,37.2V22.9h2c0.4,0,0.7,0.2,0.8,0.5l0.2,0.8c0.9-1,2-1.5,3.4-1.5c2,0,3.1,1.5,3.7,3.2
		c0.4,1.4,0.4,3.2-0.1,4.6c-0.7,2-2.1,3.4-4.3,3.4c-1,0-1.7-0.3-2.5-0.9v4.1L34.5,37.2L34.5,37.2z M39.8,25.2c-0.9,0-1.5,0.3-2.1,1
		v4.6c0.5,0.5,1,0.7,1.7,0.7c1.8,0,2.1-1.9,2.1-3.3C41.5,27.1,41.4,25.2,39.8,25.2L39.8,25.2z"></path>
	<path class="st1" d="M51.2,22.7c3.4,0,5.5,2.2,5.5,5.6c0,3.4-2.1,5.6-5.5,5.6s-5.6-2.3-5.6-5.6C45.6,24.9,47.8,22.7,51.2,22.7
		L51.2,22.7z M51.2,31.5c1.9,0,2.2-1.7,2.2-3.2s-0.3-3.2-2.2-3.2S49,26.7,49,28.3C49,29.9,49.3,31.5,51.2,31.5L51.2,31.5z"></path>
	<polygon class="st1" points="67.4,22.9 67.4,33.7 64.2,33.7 64.2,29.2 60.8,29.2 60.8,33.7 57.6,33.7 57.6,22.9 60.8,22.9 
		60.8,26.8 64.2,26.8 64.2,22.9 	"></polygon>
	<path class="st1" d="M67.7,12.8c-1.1,0-2.1,0.2-2.9,0.3c0,0.3-0.2,1.9,1.1,1.6c1.1-0.2,1.9-0.3,2.3,0.1c0.2,0.2,0.3,0.4,0.3,0.8
		c-0.9,0-1.6,0.1-2.1,0.3c-0.9,0.3-1.6,0.6-2,1.5c-0.4,0.8-0.2,2.1,0.5,2.7s2,0.7,2.9,0.3c0.4-0.2,0.7-0.5,1.1-0.7l0.2,0.4
		c0.1,0.4,0.3,0.4,0.7,0.4h1v-4.8C70.6,14,69.3,12.8,67.7,12.8L67.7,12.8z M68.5,18.2c-0.2,0.2-0.4,0.4-0.7,0.5
		c-0.3,0.2-1.1,0.3-1.5,0s-0.3-1.1,0.2-1.3c0.5-0.3,1.4-0.3,1.9-0.3L68.5,18.2L68.5,18.2z"></path>
	<rect x="10.9" y="16.8" class="st1 st4" width="11.7" height="1.4"></rect>
	<polygon class="st1 st4" points="16.7,4 18.3,5.5 16.7,7 15.2,5.5"></polygon>
	<path class="st1 st4" d="M19.2,15c-0.2,0-0.7,0-0.7,0V9.1c1.1,0.2,2.1,0.5,3,0.9l-1.9,4.7C19.4,15,19.2,15,19.2,15L19.2,15z M24.9,10.6
		c-2.1-1.9-4.8-3-7.8-3.1v8.6c0,0,2.3,0,2.9,0c0.5,0,0.7-0.5,0.7-0.5l2.1-5c0.2,0.1,0.4,0.3,0.6,0.4l-2.1,5.1h1.3
		C23.4,14.3,24.2,12.5,24.9,10.6L24.9,10.6z"></path>
	<path class="st1 st4" d="M14.2,15c0.1,0,0.7,0,0.7,0V9.1c-1.1,0.2-2.1,0.5-3,0.9l1.9,4.7C14,15,14.2,15,14.2,15L14.2,15z M8.5,10.6
		c2.1-1.9,4.8-3,7.8-3.1v8.6c0,0-2.3,0-2.9,0c-0.5,0-0.7-0.5-0.7-0.5l-2.1-5c-0.2,0.1-0.4,0.3-0.6,0.4l2.1,5.1h-1.5
		C10.1,14.3,9.3,12.5,8.5,10.6L8.5,10.6z"></path>
	<path class="st1" d="M73.6,22.7c-1.7,0-3,0.2-4.2,0.4c0,0.5-0.3,2.8,1.6,2.4c1.5-0.3,2.8-0.5,3.3,0.1c0.3,0.3,0.4,0.5,0.4,1.1
		c-1.3,0-2.3,0.1-3.1,0.4c-1.3,0.3-2.3,0.9-2.9,2.1c-0.5,1.1-0.3,3.1,0.7,4s2.9,1,4.2,0.4c0.6-0.3,1.1-0.6,1.5-1.1l0.2,0.6
		c0.2,0.6,0.5,0.7,1.1,0.7h1.5v-7C77.8,24.3,75.9,22.7,73.6,22.7L73.6,22.7z M74.6,30.5c-0.3,0.3-0.6,0.6-0.9,0.7
		c-0.5,0.2-1.5,0.4-2.1,0s-0.4-1.6,0.3-1.9c0.7-0.3,2-0.4,2.8-0.5v1.7H74.6z"></path>
</g>
						</svg>